<?xml version="1.0"?>
<svg xmlns="http://www.w3.org/2000/svg" height="512px" viewBox="0 0 496 496" width="512px" class=""><g><path d="m384 376h24v64h-24zm0 0" fill="#f0bc5e" data-original="#F0BC5E" class="" data-old_color="#f0bc5e" style="fill:#FF9900"/><path d="m272 118.113281v-44.21875l-21-5.742187c-.6875-1.832032-1.457031-3.664063-2.289062-5.480469l10.808593-18.917969-31.261719-31.265625-18.921874 10.808594c-1.816407-.832031-3.640626-1.601563-5.480469-2.289063l-5.742188-21.007812h-44.21875l-5.742187 21c-1.832032.6875-3.664063 1.457031-5.480469 2.289062l-18.917969-10.808593-31.265625 31.261719 10.808594 18.921874c-.832031 1.816407-1.601563 3.640626-2.289063 5.480469l-21.007812 5.742188v44.21875l21 5.742187c.6875 1.832032 1.457031 3.664063 2.289062 5.480469l-10.808593 18.917969h167.03125l-10.808594-18.917969c.832031-1.816406 1.601563-3.640625 2.289063-5.480469zm-96 17.886719c-22.089844 0-40-17.910156-40-40s17.910156-40 40-40 40 17.910156 40 40-17.910156 40-40 40zm0 0" fill="#f0bc5e" data-original="#F0BC5E" class="" data-old_color="#f0bc5e" style="fill:#FF9900"/><path d="m152.425781 335.558594-1.671875-15.910156c32.636719-3.417969 57.246094-30.785157 57.246094-63.648438 0-35.289062-28.710938-64-64-64-32.96875 0-60.335938 24.695312-63.664062 57.449219l-15.921876-1.617188c4.160157-40.953125 38.378907-71.832031 79.585938-71.832031 44.113281 0 80 35.886719 80 80 0 41.078125-30.777344 75.289062-71.574219 79.558594zm0 0" data-original="#000000" class="active-path" data-old_color="#000000" style="fill:#B3B5B4"/><path d="m203.3125 368h-171.3125v-171.3125zm0 0" fill="#f0bc5e" data-original="#F0BC5E" class="" data-old_color="#f0bc5e" style="fill:#FF9900"/><path d="m496 336v-125.296875c0-19.34375-13.816406-35.894531-32.839844-39.351563l-55.160156-10.023437v-15.441406c14.609375-11.742188 24-29.71875 24-49.878907v-16h16v-16.007812h-16v-8c0-30.878906-25.128906-56-56-56h-16c-30.871094 0-56 25.121094-56 56v8h-16v16h16v16c0 19.121094 8.472656 36.265625 21.808594 48h-285.808594c-22.054688 0-40 17.945312-40 40v272c0 22.054688 17.945312 40 40 40h56v-64h86.113281l32 16h241.886719c22.054688 0 40-17.945312 40-40s-17.945312-40-40-40h-24v-32zm-16-125.296875v109.296875h-32v-80h-16v80h-128v-80h-16v80h-32v-109.296875c0-11.605469 8.289062-21.535156 19.703125-23.613281l31.402344-5.714844 16.160156 64.648438 44.734375-35.777344 44.734375 35.792968 16.160156-64.648437 31.402344 5.714844c11.414063 2.0625 19.703125 12 19.703125 23.597656zm-146.695312-34.078125 22.710937 22.710938-23.289063 18.632812-9.855468-39.449219zm79.824218 1.894531-9.855468 39.449219-23.289063-18.632812 22.710937-22.710938zm-21.128906-13.832031-24 24-24-24v-9.398438c7.414062 3.015626 15.511719 4.710938 24 4.710938s16.585938-1.695312 24-4.710938zm24-108.6875v8h-22.9375l5.152344-41.230469c10.714844 7.183594 17.785156 19.390625 17.785156 33.230469zm-40-40c2.34375 0 4.617188.304688 6.847656.695312l-5.910156 47.304688h-17.875l-5.910156-47.304688c2.230468-.390624 4.503906-.695312 6.847656-.695312zm-56 40c0-13.839844 7.070312-26.046875 17.785156-33.230469l5.152344 41.230469h-22.9375zm0 40v-16h96v16c0 26.472656-21.527344 48-48 48s-48-21.527344-48-48zm-240 384h-40c-13.230469 0-24-10.769531-24-24s10.769531-24 24-24h40zm144-96h176v48h-176zm-16 43.054688-38.113281-19.054688 38.113281-19.054688zm272-19.054688c0 13.230469-10.769531 24-24 24h-40v-48h40c13.230469 0 24 10.769531 24 24zm-64-40h-201.886719l-80 40 16 8h-110.113281c-9.039062 0-17.296875 3.128906-24 8.207031v-240.207031c0-13.230469 10.769531-24 24-24h288v1.328125l-55.160156 10.023437c-19.023438 3.464844-32.839844 20.007813-32.839844 39.351563v125.296875h176zm0 0" data-original="#000000" class="active-path" data-old_color="#000000" style="fill:#B3B5B4"/><path d="m224 96c0-26.472656-21.527344-48-48-48s-48 21.527344-48 48 21.527344 48 48 48 48-21.527344 48-48zm-48 32c-17.648438 0-32-14.351562-32-32s14.351562-32 32-32 32 14.351562 32 32-14.351562 32-32 32zm0 0" data-original="#000000" class="active-path" data-old_color="#000000" style="fill:#B3B5B4"/><path d="m32 384h96v16h-96zm0 0" data-original="#000000" class="active-path" data-old_color="#000000" style="fill:#B3B5B4"/><path d="m64 264h-16v88h88v-16h-72zm0 0" data-original="#000000" class="active-path" data-old_color="#000000" style="fill:#B3B5B4"/></g> </svg>
